<?xml version="1.0" encoding="UTF-8" standalone="no"?>
<!-- Created with Inkscape (http://www.inkscape.org/) -->

<svg
   xmlns:dc="http://purl.org/dc/elements/1.1/"
   xmlns:cc="http://creativecommons.org/ns#"
   xmlns:rdf="http://www.w3.org/1999/02/22-rdf-syntax-ns#"
   xmlns:svg="http://www.w3.org/2000/svg"
   xmlns="http://www.w3.org/2000/svg"
   xmlns:sodipodi="http://sodipodi.sourceforge.net/DTD/sodipodi-0.dtd"
   xmlns:inkscape="http://www.inkscape.org/namespaces/inkscape"
   id="svg9292"
   version="1.1"
   inkscape:version="0.48.2 r9819"
   width="1000"
   height="199.02342"
   xml:space="preserve"
   sodipodi:docname="].pdf"><metadata
     id="metadata9298"><rdf:RDF><cc:Work
         rdf:about=""><dc:format>image/svg+xml</dc:format><dc:type
           rdf:resource="http://purl.org/dc/dcmitype/StillImage" /><dc:title></dc:title></cc:Work></rdf:RDF></metadata><defs
     id="defs9296"><clipPath
       clipPathUnits="userSpaceOnUse"
       id="clipPath9306"><path
         d="m 0,0.784973 792,0 0,1131.430027 -792,0 L 0,0.784973 z"
         id="path9308"
         inkscape:connector-curvature="0" /></clipPath><clipPath
       clipPathUnits="userSpaceOnUse"
       id="clipPath9314"><path
         d="M 0,1132.2292 0,0.799142 l 783.51538,0 0,1131.430058 -783.51538,0 z"
         clip-rule="evenodd"
         id="path9316"
         inkscape:connector-curvature="0" /></clipPath><clipPath
       clipPathUnits="userSpaceOnUse"
       id="clipPath9322"><path
         d="m 185.2681,447.20526 270.06668,0 0,444.0863 -270.0667,0 2e-5,-444.0863 z"
         clip-rule="evenodd"
         id="path9324"
         inkscape:connector-curvature="0" /></clipPath><clipPath
       clipPathUnits="userSpaceOnUse"
       id="clipPath9330"><path
         d="m 185.26808,910.7544 270.0667,0 0,-484.16297 -270.0667,0 0,484.16297 z"
         id="path9332"
         inkscape:connector-curvature="0" /></clipPath><clipPath
       clipPathUnits="userSpaceOnUse"
       id="clipPath9342"><path
         d="m 185.2681,902.12421 271.54324,0 0,165.80819 -271.54323,0 -1e-5,-165.80819 z"
         clip-rule="evenodd"
         id="path9344"
         inkscape:connector-curvature="0" /></clipPath><clipPath
       clipPathUnits="userSpaceOnUse"
       id="clipPath9350"><path
         d="m 184.77876,1077.5564 272.6848,0 0,-232.93091 -272.6848,0 0,232.93091 z"
         id="path9352"
         inkscape:connector-curvature="0" /></clipPath><clipPath
       clipPathUnits="userSpaceOnUse"
       id="clipPath9362"><path
         d="m -739.67145,371.44711 913.62976,0 0,696.48279 -913.62976,0 0,-696.48279 z"
         clip-rule="evenodd"
         id="path9364"
         inkscape:connector-curvature="0" /></clipPath><clipPath
       clipPathUnits="userSpaceOnUse"
       id="clipPath9370"><path
         d="m -849.42865,1071.4395 1091.48801,0 0,-699.99242 -1091.48801,0 0,699.99242 z"
         id="path9372"
         inkscape:connector-curvature="0" /></clipPath><clipPath
       clipPathUnits="userSpaceOnUse"
       id="clipPath9554"><path
         d="m 43.840042,1083.2911 57.420068,0 0,11.3822 -57.420068,0 0,-11.3822 z"
         id="path9556"
         inkscape:connector-curvature="0" /></clipPath></defs><sodipodi:namedview
     pagecolor="#ffffff"
     bordercolor="#666666"
     borderopacity="1"
     objecttolerance="10"
     gridtolerance="10"
     guidetolerance="10"
     inkscape:pageopacity="0"
     inkscape:pageshadow="2"
     inkscape:window-width="1058"
     inkscape:window-height="1032"
     id="namedview9294"
     showgrid="false"
     fit-margin-left="0.5"
     fit-margin-bottom="0.5"
     fit-margin-top="0.5"
     fit-margin-right="0.5"
     inkscape:zoom="0.33327449"
     inkscape:cx="691.18229"
     inkscape:cy="-385.47495"
     inkscape:window-x="854"
     inkscape:window-y="-16"
     inkscape:window-maximized="0"
     inkscape:current-layer="g9300" /><g
     id="g9300"
     inkscape:groupmode="layer"
     inkscape:label="]"
     transform="matrix(1.25,0,0,-1.25,-54.300067,1552.6379)"><g
       id="g9550"
       style="fill:#014188;fill-opacity:1"
       transform="matrix(13.918479,0,0,13.918479,-566.34665,-13994.477)"><g
         id="g9552"
         clip-path="url(#clipPath9554)"
         style="fill:#014188;fill-opacity:1"><path
           d="m 53.121918,1094.4231 c -0.103432,-0.4884 -0.594651,0.1028 -0.879029,-0.2314 -0.465362,-0.4885 -0.465362,-1.1568 -0.465362,-1.851 l 0,-6.1957 c 0.02586,-0.2057 0.129265,-0.4114 0.336105,-0.5141 0.180966,0 0.336079,0.257 0.491196,0.051 0.05173,-0.077 0.05173,-0.18 0,-0.2571 -0.465344,-0.5142 -1.034138,-0.8998 -1.525334,-1.3368 -0.620475,0.1285 -0.930728,0.7711 -1.085842,1.2853 0,0.3086 0.05173,0.617 -0.05172,0.8997 l -2.973107,-2.1594 -0.129302,0.026 c -0.646328,0.4884 -1.344327,0.9255 -1.91314,1.4911 0,0.2056 0.232693,0.257 0.336102,0.3598 1.059967,0.4628 2.042423,1.5425 1.964863,2.7766 -0.02585,1.594 0,3.2134 -0.465386,4.6275 -0.15509,0.3084 -0.491192,0.6169 -0.827297,0.6941 -0.310227,0.026 -0.542938,-0.051 -0.775589,-0.18 -0.336125,-0.257 -0.413658,-0.6684 -0.310253,-1.054 0.517071,-1.1827 1.887291,-2.0053 1.809753,-3.4192 -0.0517,-0.7199 -0.336124,-1.414 -0.982433,-1.8511 -0.258545,-0.1284 -0.542923,-0.2827 -0.879002,-0.1798 -0.232712,0.077 -0.465381,0.3083 -0.620498,0.5141 -0.07758,0.257 -0.155095,0.617 0,0.8741 0.07754,0.051 0.180965,0.077 0.310249,0.051 0.103409,-0.3085 0,-0.797 0.439491,-0.9255 0.232693,-0.026 0.413681,0.077 0.568813,0.2312 0.129242,0.1801 0.180947,0.4372 0.129242,0.6943 -0.594646,1.1054 -1.913177,1.9281 -1.783897,3.342 0.103409,0.9255 0.646351,1.8511 1.551186,2.2367 0.930725,0.437 2.016567,0.077 2.740474,-0.5142 1.318531,-1.2854 1.318531,-3.6248 0.62048,-5.1673 -0.387806,-0.8484 -1.085842,-1.5425 -1.861454,-2.1853 0.284374,-0.3856 0.749779,-0.6426 1.163422,-0.9512 0.67218,0.3856 1.344364,0.8998 1.939006,1.4397 l -0.02585,6.2728 c -0.07756,0.4113 -0.361954,0.7455 -0.517071,1.1055 0.07756,0.077 0.155117,0.1542 0.232655,0.1542 0.258545,-0.2827 0.517086,-0.5398 0.698074,-0.8484 0.18097,0.1285 0.41362,0.3857 0.62048,0.5399 0.568752,0.3856 1.499481,0.6427 2.11998,0.1543 z m 35.341568,-1.234 c 0.206825,-0.1799 0.284378,-0.4371 0.206825,-0.6941 -0.155144,-0.3342 -0.33609,-0.6428 -0.646309,-0.8998 -0.258552,-0.026 -0.361984,0.2827 -0.542946,0.437 -0.180969,0.2827 -0.387787,0.7198 -0.129265,1.0541 0.258568,0.3085 0.827317,0.4113 1.111695,0.1028 z m 3.748756,-0.026 0.129265,-0.026 c -0.02588,-0.4371 -0.05172,-0.9513 -0.542938,-1.157 -0.491196,-0.4626 -1.318497,0.5657 -1.396073,-0.3598 0.465348,-0.5142 1.240967,-0.9255 1.137528,-1.7225 0,-1.9281 -0.180947,-3.8048 -0.46534,-5.6045 -0.129288,-0.3083 -0.129288,-0.6939 -0.387787,-0.9254 -0.206825,0 -0.258568,0.2829 -0.336105,0.4113 -0.46537,1.9025 -0.361977,4.0362 -0.439507,6.0929 -0.129257,0.2058 -0.336082,0 -0.491241,0.1028 -0.07754,0.1286 0.12928,0.2314 0.12928,0.3599 0.413666,1.0026 0.05174,2.4937 1.240982,3.0337 0.517067,0.026 0.930702,-0.5656 1.421936,-0.2058 z"
           style="fill:#014188;fill-opacity:1;fill-rule:nonzero;stroke:none"
           id="path9558"
           inkscape:connector-curvature="0" /><path
           d="m 73.158272,1093.1633 c 0.103393,0.026 0.103393,-0.1028 0.155121,-0.1541 -0.05173,-0.4371 -0.206818,-0.9512 -0.698037,-1.1313 -0.439491,-0.257 -1.215126,0.5913 -1.29264,-0.257 0.465339,-0.4885 1.13755,-0.8741 1.13755,-1.5683 0,-2.288 -0.103432,-4.6017 -0.723907,-6.6584 -0.05171,-0.077 -0.129265,-0.1028 -0.206841,-0.1028 -0.336113,0.36 -0.310257,0.8741 -0.439506,1.3111 -0.232682,1.6709 -0.206826,3.4449 -0.258538,5.1932 -0.129257,0.1798 -0.361946,0.051 -0.517044,0.1284 -0.0776,0.1285 0.129265,0.2057 0.155098,0.3342 0.439514,1.0283 -0.02583,2.5966 1.292679,3.0851 0.491219,0 0.956581,-0.5399 1.396065,-0.1801 z m 14.86573,-1.9537 c 0.413651,-0.3857 0.698029,-0.8228 1.008286,-1.2341 0.07753,-0.1542 -0.129288,-0.2056 -0.181015,-0.3341 l -0.02583,-3.5221 c 0.02583,-0.1286 0.155137,-0.2828 0.284379,-0.3341 0.258522,-0.1801 0.387809,0.3598 0.594619,0.051 l -0.02585,-0.257 c -0.46534,-0.4886 -0.879006,-0.977 -1.344368,-1.4397 -0.775604,0.3086 -1.059982,1.1311 -1.111733,1.9024 l 0,3.4964 c -0.10337,0.4112 -0.723861,-0.1543 -0.517044,0.4369 l 1.215126,1.2341 0.103432,0 z m 10.263779,-1.4655 1.370216,1.337 c 0.491223,-0.3086 0.930723,-0.8484 1.370243,-1.2854 -0.0517,-0.1801 -0.31023,-0.1543 -0.38781,-0.36 l 0,-3.6505 c 0.0776,-0.1543 0.25855,-0.2315 0.38781,-0.1287 0.0517,0.051 0.0775,0.1543 0.18097,0.1287 0.12926,-0.1029 0.12926,-0.2571 0.0517,-0.3857 l -1.318527,-1.2855 c -0.542885,0.2313 -0.879021,0.8228 -0.956566,1.3883 l -0.02585,3.7792 c -0.02587,0.077 -0.155091,0.2056 -0.232674,0.2313 -0.206841,-0.026 -0.465347,-0.1285 -0.491211,-0.3598 0,-1.1056 -0.129265,-2.3138 0.07755,-3.3678 0.103409,-0.2315 0.491241,-0.1287 0.387794,-0.4115 l -1.240982,-1.2853 c -0.413627,0.36 -0.827278,0.8484 -1.240921,1.2853 l 0.361931,0.4371 0.02588,3.5991 c -0.02588,0.1029 -0.129303,0.2057 -0.206863,0.2572 -0.180947,0.1028 -0.284386,-0.2314 -0.413636,0.026 l 0.0517,0.18 c 0.413666,0.4114 0.698021,0.8998 1.189285,1.2597 0.620453,-0.257 0.827271,-0.8741 1.05996,-1.3883 z m -38.728375,0.5913 c 0.129261,-0.2056 0.155094,-0.4627 0.310208,-0.6683 0.310291,0.4114 0.517089,0.9512 0.827339,1.3626 l 0.07758,0 0.930706,-1.157 c -0.180988,-0.5398 -0.568775,-0.9769 -0.904895,-1.4654 -0.310231,0.257 -0.594605,0.617 -0.904835,0.8484 l -0.0517,-0.077 0.02581,-3.2135 c 0.05172,-0.1543 0.20684,-0.3342 0.361957,-0.36 0.258541,-0.1285 0.387825,0.3342 0.594666,0.026 l -0.0517,-0.2057 -1.447796,-1.3882 -0.155117,0.026 -1.215122,1.0541 c -0.07756,0.1542 0.180969,0.2313 0.206818,0.3856 l -0.02585,3.7792 c -0.05171,0.1542 -0.07756,0.3341 -0.258529,0.4112 -0.12928,0.026 -0.284374,-0.2056 -0.36195,0.026 l 0.05172,0.1542 1.189232,1.1826 c 0.336079,-0.077 0.646347,-0.437 0.801464,-0.7199 z"
           style="fill:#014188;fill-opacity:1;fill-rule:nonzero;stroke:none"
           id="path9560"
           inkscape:connector-curvature="0" /><path
           d="m 55.500416,1094.1917 c 0,-0.077 0,-0.18 -0.103428,-0.2056 -0.336083,0.026 -0.827297,0.2827 -1.085823,-0.1028 -0.155113,-0.1544 -0.180966,-0.36 -0.232693,-0.5657 0.232693,-1.0027 1.344387,-1.234 2.016594,-1.8766 1.551201,-1.1313 1.215099,-3.085 1.266823,-4.8847 0.05168,-0.5912 -0.672218,-0.9512 -1.034153,-1.3111 l -1.525356,-1.2854 -1.835598,1.4139 c 0,0.18 0.180984,0.2572 0.232692,0.4115 0.07753,1.2338 -0.02587,2.5708 0.103409,3.779 0.413658,0.2828 0.956558,0.3856 1.266808,0.874 -0.775593,0.72 -1.73217,1.5425 -1.551205,2.7509 0.07754,0.4884 0.387783,0.9512 0.853188,1.2084 0.491199,0.3598 1.189231,0.2055 1.628742,-0.2058 z m -0.620495,-4.1132 -0.02584,-3.9592 c 0.103413,-0.2828 0.413681,-0.437 0.62048,-0.6427 0.07756,-0.1029 0.206821,-0.026 0.258545,0.077 l 0,3.1621 c -0.02583,0.5657 -0.284417,1.1569 -0.853188,1.3627 z m 25.129509,0.9768 c 0.51709,-0.4884 0.982429,-0.9512 1.499496,-1.4139 0.02587,-0.1543 -0.129264,-0.2315 -0.180969,-0.3343 l -0.02587,-3.5477 c 0.0517,-0.1285 0.181015,-0.2057 0.284401,-0.1543 0.103409,0.051 0.180969,0.1285 0.310226,0.1028 0.103447,-0.077 0.155113,-0.2056 0.07758,-0.3084 l -1.473656,-1.3111 c -0.491211,0.2055 -0.827339,0.7197 -0.904869,1.2082 l -0.129219,0 -1.240998,-1.2082 -0.155136,0 c -1.525352,1.0539 -0.723869,3.1365 -0.956558,4.756 0.853149,0.8227 1.809723,1.4653 2.662872,2.288 l 0.232697,-0.077 z m -1.111672,-1.3882 c -0.12931,-0.051 -0.181007,-0.18 -0.181007,-0.3086 l 0.02586,-3.2649 0.155143,-0.3084 c 0.103409,-0.077 0.206795,-0.2057 0.336075,-0.1287 0.206841,0.1029 0.258545,0.3086 0.336083,0.4885 0.02586,0.9512 0.05173,1.9796 -0.02585,2.905 -0.155143,0.2315 -0.33609,0.5656 -0.646309,0.6171 z"
           style="fill:#014188;fill-opacity:1;fill-rule:nonzero;stroke:none"
           id="path9562"
           inkscape:connector-curvature="0" /><path
           d="m 64.600807,1090.644 1.008286,-1.7996 -0.07756,-0.2056 -2.171703,-1.9281 c -0.07755,-0.3086 0,-0.6685 0.284397,-0.8742 0.180988,-0.2314 0.413681,-0.3342 0.672203,-0.3856 0.284378,-0.077 0.491196,0.4884 0.723892,0.1028 -0.310249,-0.6683 -1.034134,-0.9512 -1.499485,-1.4911 -0.698051,0.2571 -1.628757,0.6685 -1.758041,1.5425 -0.232693,1.0027 -0.103409,2.2109 -0.103409,3.2907 0.775593,0.7713 1.680443,1.4655 2.533642,2.1853 0.20681,-0.051 0.28437,-0.2829 0.387779,-0.4371 z m -1.266807,-1.0026 -0.02585,-2.3909 0.879025,0.8741 c -0.258549,0.5142 -0.51709,1.0284 -0.853172,1.5168 z m 13.624694,-0.797 -0.02578,-0.1542 -2.249283,-2.031 c -0.07756,-0.437 0.180984,-0.8227 0.568794,-1.0541 0.180946,-0.1028 0.413628,-0.2056 0.646332,-0.1028 0.15509,0 0.232643,0.2829 0.41365,0.1542 0.05171,-0.077 0.07755,-0.1542 0.07755,-0.2828 l -1.473641,-1.3367 c -0.698028,0.2313 -1.680473,0.6427 -1.758041,1.5425 -0.258499,1.0025 -0.103409,2.1595 -0.155106,3.2649 l 0.129265,0.2056 2.430222,2.0311 0.129257,-0.026 1.266784,-2.2109 z m -2.223342,0.7456 -0.07758,0.026 0,-2.3137 c 0.336082,0.1799 0.672203,0.4885 0.879005,0.8227 l -0.801429,1.4654 z m 20.165626,1.4139 c 0.439514,-0.7198 0.853165,-1.4653 1.240975,-2.1852 l -0.02586,-0.1285 c -0.749748,-0.7456 -1.602913,-1.3883 -2.249245,-2.1596 0.02585,-0.3856 0.232689,-0.7454 0.594643,-0.9511 0.206817,-0.1543 0.439491,-0.1029 0.672165,-0.051 0.129257,0.051 0.20684,0.1542 0.361946,0.1542 0.129288,-0.077 0.129288,-0.2314 0.05173,-0.3343 l -1.421952,-1.311 c -0.749755,0.2827 -1.732162,0.7969 -1.809753,1.7224 -0.15509,0.9768 -0.05167,2.0824 -0.07753,3.1364 0.775574,0.7713 1.654595,1.4396 2.507782,2.1595 l 0.155098,-0.051 z m -1.008285,-1.3883 0,-2.288 c 0.336105,0.1028 0.646331,0.4884 0.827323,0.797 -0.258529,0.4883 -0.517059,1.0026 -0.827323,1.491 z"
           style="fill:#014188;fill-opacity:1;fill-rule:nonzero;stroke:none"
           id="path9564"
           inkscape:connector-curvature="0" /><path
           d="m 83.292824,1092.3149 c -0.07758,-0.2313 -0.336106,-0.2827 -0.491211,-0.4627 -0.258553,-0.6684 0.620476,-0.8483 0.878998,-1.3111 0.180961,-0.1543 0.155113,-0.4113 0.284393,-0.5656 0.439491,0.2828 0.801453,0.7199 1.189232,1.1056 l 0.181007,0 c 1.551186,-1.0542 0.853127,-3.0851 1.034134,-4.7304 -0.723907,-0.797 -1.551216,-1.5682 -2.352661,-2.3137 l -0.129265,0 c -0.517067,0.4884 -1.137573,0.874 -1.628792,1.3625 -0.02584,0.1286 0.05174,0.2056 0.10344,0.2828 l -0.02587,3.5734 c -0.284401,0.6941 -0.827301,1.5425 -0.336067,2.3395 0.103394,0.4114 0.568756,0.797 0.956558,0.8998 0.129265,-0.026 0.258522,-0.051 0.336106,-0.1801 z m 1.00827,-2.7507 c -0.155098,-0.051 -0.284378,-0.2057 -0.310257,-0.3599 l 0.02588,-3.1364 c 0.155106,-0.2571 0.439507,-0.4114 0.67218,-0.5142 -0.02585,1.2083 0.02587,2.468 -0.0517,3.6763 -0.05171,0.1543 -0.129265,0.3342 -0.336098,0.3342 z m -14.245201,2.905 c 0.20681,-0.3598 0.284378,-0.797 0.20681,-1.234 -0.103401,-0.5912 -0.646332,-1.1054 -1.137558,-1.4653 l 0.02586,-0.1285 0.956558,-1.0285 c -0.129234,-0.8483 0.310257,-1.9795 -0.413651,-2.5964 l -1.680442,-1.9795 -0.155144,0 c -0.80146,0.5141 -1.525307,1.1825 -2.27507,1.8253 l 0,0.077 0.878982,0.9513 c -0.07756,0.2313 -0.387764,0.3856 -0.491196,0.617 -0.258544,0.5912 -0.103408,1.3368 -0.15512,2.0052 0.620506,0.7199 1.396072,1.4141 2.145813,2.0053 0.361976,-0.2057 0.853195,-0.437 1.240959,-0.1286 0.20684,0.18 0.284416,0.3856 0.310249,0.6427 0.05173,0.3341 -0.258545,0.5656 -0.491218,0.7455 -0.491219,0.2057 -1.05999,0.026 -1.473618,-0.2313 -0.155144,-0.026 -0.284401,0.051 -0.336113,0.1799 0.103409,0.2571 0.413666,0.3342 0.646332,0.4628 0.827316,0.3085 1.7322,0 2.197563,-0.7199 z m -2.688751,-2.4423 0,-2.0823 0.02582,0 c 0.491219,0.5655 1.240959,1.0283 1.318512,1.7225 -0.465339,0.077 -0.904854,0.2056 -1.344337,0.3598 z m 0.982444,-1.8251 -1.26686,-1.3626 -0.02586,-0.1285 c 0.439506,-0.36 0.80146,-0.8228 1.318534,-0.9771 0.07758,0.797 0.02584,1.6454 0.0517,2.4682 l -0.07751,0 z"
           style="fill:#014188;fill-opacity:1;fill-rule:nonzero;stroke:none"
           id="path9566"
           inkscape:connector-curvature="0" /></g></g></g></svg>